<svg style="vertical-align: -0.05ex;" xmlns="http://www.w3.org/2000/svg" width="10.231ex" height="1.645ex" role="img" focusable="false" viewBox="0 -705 4522.1 727"><g stroke="currentColor" fill="currentColor" stroke-width="0" transform="scale(1,-1)"><g data-mml-node="math"><g data-mml-node="mi"><path data-c="1D449" d="M52 648Q52 670 65 683H76Q118 680 181 680Q299 680 320 683H330Q336 677 336 674T334 656Q329 641 325 637H304Q282 635 274 635Q245 630 242 620Q242 618 271 369T301 118L374 235Q447 352 520 471T595 594Q599 601 599 609Q599 633 555 637Q537 637 537 648Q537 649 539 661Q542 675 545 679T558 683Q560 683 570 683T604 682T668 681Q737 681 755 683H762Q769 676 769 672Q769 655 760 640Q757 637 743 637Q730 636 719 635T698 630T682 623T670 615T660 608T652 599T645 592L452 282Q272 -9 266 -16Q263 -18 259 -21L241 -22H234Q216 -22 216 -15Q213 -9 177 305Q139 623 138 626Q133 637 76 637H59Q52 642 52 648Z"></path></g><g data-mml-node="mo" transform="translate(1046.8,0)"><path data-c="3A" d="M78 370Q78 394 95 412T138 430Q162 430 180 414T199 371Q199 346 182 328T139 310T96 327T78 370ZM78 60Q78 84 95 102T138 120Q162 120 180 104T199 61Q199 36 182 18T139 0T96 17T78 60Z"></path></g><g data-mml-node="TeXAtom" data-mjx-texclass="ORD" transform="translate(1602.6,0)"><g data-mml-node="mi"><path data-c="53" d="M554 512Q536 512 536 522Q536 525 539 539T542 564Q542 588 528 604Q515 616 482 625T410 635Q374 635 349 624T312 594T295 561T290 532Q290 505 303 482T342 442T378 419T409 404Q435 391 451 383T494 357T535 323T562 282T574 231Q574 133 464 56T220 -22Q138 -22 78 21T18 123Q18 184 61 227T156 274Q178 274 178 263Q178 260 177 258Q172 247 164 239T151 227T136 218L127 213L124 202Q118 186 118 163Q120 124 165 86T292 48Q374 48 423 86T473 186V193Q473 267 347 327Q268 364 239 389Q191 431 191 486Q191 547 242 600T356 679T470 705Q472 705 478 705T489 704Q551 704 596 682T642 610Q642 566 621 545Q592 516 554 512Z"></path></g></g><g data-mml-node="mo" transform="translate(2522.3,0)"><path data-c="2192" d="M56 237T56 250T70 270H835Q719 357 692 493Q692 494 692 496T691 499Q691 511 708 511H711Q720 511 723 510T729 506T732 497T735 481T743 456Q765 389 816 336T935 261Q944 258 944 250Q944 244 939 241T915 231T877 212Q836 186 806 152T761 85T740 35T732 4Q730 -6 727 -8T711 -11Q691 -11 691 0Q691 7 696 25Q728 151 835 230H70Q56 237 56 250Z"></path></g><g data-mml-node="TeXAtom" data-mjx-texclass="ORD" transform="translate(3800.1,0)"><g data-mml-node="mi"><path data-c="2115" d="M20 664Q20 666 31 683H142Q256 683 258 681Q259 680 279 653T342 572T422 468L582 259V425Q582 451 582 490T583 541Q583 611 573 628T522 648Q500 648 493 654Q484 665 493 679L500 683H691Q702 676 702 666Q702 657 698 652Q688 648 680 648Q633 648 627 612Q624 601 624 294V-8Q616 -20 607 -20Q601 -20 596 -15Q593 -13 371 270L156 548L153 319Q153 284 153 234T152 167Q152 103 156 78T172 44T213 34Q236 34 242 28Q253 17 242 3L236 -1H36Q24 6 24 16Q24 34 56 34Q58 35 69 36T86 40T100 50T109 72Q111 83 111 345V603L96 619Q72 643 44 648Q20 648 20 664ZM413 419L240 648H120L136 628Q137 626 361 341T587 54L589 68Q589 78 589 121V192L413 419Z"></path></g></g></g></g></svg>