<svg style="vertical-align: -0.566ex;" xmlns="http://www.w3.org/2000/svg" width="12.737ex" height="2.262ex" role="img" focusable="false" viewBox="0 -750 5629.8 1000"><g stroke="currentColor" fill="currentColor" stroke-width="0" transform="scale(1,-1)"><g data-mml-node="math"><g data-mml-node="mi"><path data-c="1D70C" d="M58 -216Q25 -216 23 -186Q23 -176 73 26T127 234Q143 289 182 341Q252 427 341 441Q343 441 349 441T359 442Q432 442 471 394T510 276Q510 219 486 165T425 74T345 13T266 -10H255H248Q197 -10 165 35L160 41L133 -71Q108 -168 104 -181T92 -202Q76 -216 58 -216ZM424 322Q424 359 407 382T357 405Q322 405 287 376T231 300Q217 269 193 170L176 102Q193 26 260 26Q298 26 334 62Q367 92 389 158T418 266T424 322Z"></path></g><g data-mml-node="mo" transform="translate(794.8,0)"><path data-c="3A" d="M78 370Q78 394 95 412T138 430Q162 430 180 414T199 371Q199 346 182 328T139 310T96 327T78 370ZM78 60Q78 84 95 102T138 120Q162 120 180 104T199 61Q199 36 182 18T139 0T96 17T78 60Z"></path></g><g data-mml-node="mi" transform="translate(1350.6,0)"><path data-c="1D44D" d="M58 8Q58 23 64 35Q64 36 329 334T596 635L586 637Q575 637 512 637H500H476Q442 637 420 635T365 624T311 598T266 548T228 469Q227 466 226 463T224 458T223 453T222 450L221 448Q218 443 202 443Q185 443 182 453L214 561Q228 606 241 651Q249 679 253 681Q256 683 487 683H718Q723 678 723 675Q723 673 717 649Q189 54 188 52L185 49H274Q369 50 377 51Q452 60 500 100T579 247Q587 272 590 277T603 282H607Q628 282 628 271Q547 5 541 2Q538 0 300 0H124Q58 0 58 8Z"></path></g><g data-mml-node="mo" transform="translate(2351.3,0)"><path data-c="2192" d="M56 237T56 250T70 270H835Q719 357 692 493Q692 494 692 496T691 499Q691 511 708 511H711Q720 511 723 510T729 506T732 497T735 481T743 456Q765 389 816 336T935 261Q944 258 944 250Q944 244 939 241T915 231T877 212Q836 186 806 152T761 85T740 35T732 4Q730 -6 727 -8T711 -11Q691 -11 691 0Q691 7 696 25Q728 151 835 230H70Q56 237 56 250Z"></path></g><g data-mml-node="mo" transform="translate(3629.1,0)"><path data-c="5B" d="M118 -250V750H255V710H158V-210H255V-250H118Z"></path></g><g data-mml-node="mn" transform="translate(3907.1,0)"><path data-c="30" d="M96 585Q152 666 249 666Q297 666 345 640T423 548Q460 465 460 320Q460 165 417 83Q397 41 362 16T301 -15T250 -22Q224 -22 198 -16T137 16T82 83Q39 165 39 320Q39 494 96 585ZM321 597Q291 629 250 629Q208 629 178 597Q153 571 145 525T137 333Q137 175 145 125T181 46Q209 16 250 16Q290 16 318 46Q347 76 354 130T362 333Q362 478 354 524T321 597Z"></path></g><g data-mml-node="mo" transform="translate(4407.1,0)"><path data-c="2C" d="M78 35T78 60T94 103T137 121Q165 121 187 96T210 8Q210 -27 201 -60T180 -117T154 -158T130 -185T117 -194Q113 -194 104 -185T95 -172Q95 -168 106 -156T131 -126T157 -76T173 -3V9L172 8Q170 7 167 6T161 3T152 1T140 0Q113 0 96 17Z"></path></g><g data-mml-node="mn" transform="translate(4851.8,0)"><path data-c="31" d="M213 578L200 573Q186 568 160 563T102 556H83V602H102Q149 604 189 617T245 641T273 663Q275 666 285 666Q294 666 302 660V361L303 61Q310 54 315 52T339 48T401 46H427V0H416Q395 3 257 3Q121 3 100 0H88V46H114Q136 46 152 46T177 47T193 50T201 52T207 57T213 61V578Z"></path></g><g data-mml-node="mo" transform="translate(5351.8,0)"><path data-c="5D" d="M22 710V750H159V-250H22V-210H119V710H22Z"></path></g></g></g></svg>