<svg style="vertical-align: -0.566ex;" xmlns="http://www.w3.org/2000/svg" width="9.687ex" height="2.262ex" role="img" focusable="false" viewBox="0 -750 4281.6 1000"><g stroke="currentColor" fill="currentColor" stroke-width="0" transform="scale(1,-1)"><g data-mml-node="math"><g data-mml-node="TeXAtom" data-mjx-texclass="ORD"><g data-mml-node="mi"><path data-c="1D5A2" d="M59 347Q59 440 100 521T218 654T392 705Q473 705 550 680Q577 670 577 667Q576 666 572 642T564 595T559 571Q515 601 479 613T392 626Q300 626 232 549T164 347Q164 231 229 150T397 68Q453 68 489 80T568 120L581 129L582 110Q584 91 585 71T587 46Q580 40 566 31T502 5T396 -11Q296 -11 218 41T99 174T59 347Z"></path><path data-c="1D5C5" d="M74 0V694H164V0H74Z" transform="translate(639,0)"></path><path data-c="1D5BE" d="M28 226Q28 329 91 395T235 461Q258 461 279 456T325 436T368 397T399 332T415 238V219H113V215Q113 163 151 114T248 65Q273 65 298 70T341 82T373 96T396 108L403 113Q403 106 406 76T409 38Q409 34 408 33T393 24Q325 -10 252 -10Q155 -10 92 59T28 226ZM340 289L338 297Q335 305 333 310T327 326T317 343T304 358T286 372T263 381T233 385Q212 385 193 376T162 353T140 325T127 301T123 289H340Z" transform="translate(878,0)"></path><path data-c="1D5BA" d="M236 387Q209 387 184 382T141 370T111 355T91 342T83 337L82 355Q80 373 79 393T77 417Q77 419 81 421Q86 423 91 426Q155 460 227 460H238Q319 460 368 400Q393 371 400 341T408 252Q408 240 408 207T407 152V0H317V39L306 32Q244 -10 159 -10H152Q109 -10 77 22Q38 61 38 126Q38 142 39 146Q55 199 130 223T295 252H314V277Q314 305 313 310Q308 342 287 364T236 387ZM303 186Q124 180 124 126Q124 105 144 86T208 66Q284 66 309 124Q314 137 314 166V186H303Z" transform="translate(1322,0)"></path><path data-c="1D5C7" d="M160 392Q214 446 283 454Q285 454 292 454T303 455H306Q417 455 438 354Q442 331 443 164V0H350V157Q349 315 348 320Q334 378 259 378H253Q224 378 204 358Q180 334 173 301T165 209Q165 198 165 172T166 129V0H73V450H160V392Z" transform="translate(1803,0)"></path></g></g><g data-mml-node="mo" transform="translate(2320,0)"><path data-c="28" d="M94 250Q94 319 104 381T127 488T164 576T202 643T244 695T277 729T302 750H315H319Q333 750 333 741Q333 738 316 720T275 667T226 581T184 443T167 250T184 58T225 -81T274 -167T316 -220T333 -241Q333 -250 318 -250H315H302L274 -226Q180 -141 137 -14T94 250Z"></path></g><g data-mml-node="msub" transform="translate(2709,0)"><g data-mml-node="mi"><path data-c="1D460" d="M131 289Q131 321 147 354T203 415T300 442Q362 442 390 415T419 355Q419 323 402 308T364 292Q351 292 340 300T328 326Q328 342 337 354T354 372T367 378Q368 378 368 379Q368 382 361 388T336 399T297 405Q249 405 227 379T204 326Q204 301 223 291T278 274T330 259Q396 230 396 163Q396 135 385 107T352 51T289 7T195 -10Q118 -10 86 19T53 87Q53 126 74 143T118 160Q133 160 146 151T160 120Q160 94 142 76T111 58Q109 57 108 57T107 55Q108 52 115 47T146 34T201 27Q237 27 263 38T301 66T318 97T323 122Q323 150 302 164T254 181T195 196T148 231Q131 256 131 289Z"></path></g><g data-mml-node="mn" transform="translate(502,-150) scale(0.707)"><path data-c="30" d="M96 585Q152 666 249 666Q297 666 345 640T423 548Q460 465 460 320Q460 165 417 83Q397 41 362 16T301 -15T250 -22Q224 -22 198 -16T137 16T82 83Q39 165 39 320Q39 494 96 585ZM321 597Q291 629 250 629Q208 629 178 597Q153 571 145 525T137 333Q137 175 145 125T181 46Q209 16 250 16Q290 16 318 46Q347 76 354 130T362 333Q362 478 354 524T321 597Z"></path></g></g><g data-mml-node="mo" transform="translate(3614.6,0)"><path data-c="29" d="M60 749L64 750Q69 750 74 750H86L114 726Q208 641 251 514T294 250Q294 182 284 119T261 12T224 -76T186 -143T145 -194T113 -227T90 -246Q87 -249 86 -250H74Q66 -250 63 -250T58 -247T55 -238Q56 -237 66 -225Q221 -64 221 250T66 725Q56 737 55 738Q55 746 60 749Z"></path></g><g data-mml-node="mo" transform="translate(4003.6,0)"><path data-c="2E" d="M78 60Q78 84 95 102T138 120Q162 120 180 104T199 61Q199 36 182 18T139 0T96 17T78 60Z"></path></g></g></g></svg>